# xmcd
#
# Track frame offsets:
#        150
#        29412
#        56152
#        78695
#        105417
#        130567
#        159985
#        190955
#        210565
#        233415
#
# Disc length: 3477 seconds
#
# Revision: 1
# Processed by: cddbd v1.5.1PL2 Copyright (c) Steve Scherf et al.
# Submitted via: ExactAudioCopy v0.95b3
#
DISCID=790d930a
DTITLE=Various Artist - Compost One Hundred [CD 2)
DYEAR=2001
DGENRE=Crossover
TTITLE0=Minus 8 - Come Along
TTITLE1=Twice - Ism
TTITLE2=Fauna Flash - Ten (Pole Remix)
TTITLE3=Beanfield - Re-ac-tion
TTITLE4=Wei Chi - Never Let Me Down
TTITLE5=Supersempft - Wewa
TTITLE6=Procreation - It's All Related To Life
TTITLE7=The Amalgamation Of Soundz - Guilty As Charged
TTITLE8=DJ Force - Shadow In The City
TTITLE9=A Forest Mighty Black - Little Princess
EXTD=YEAR: 2001
EXTT0=
EXTT1=
EXTT2=
EXTT3=
EXTT4=
EXTT5=
EXTT6=
EXTT7=
EXTT8=
EXTT9=
PLAYORDER=
